<?xml version="1.0" standalone="no"?><!DOCTYPE svg PUBLIC "-//W3C//DTD SVG 1.1//EN" "http://www.w3.org/Graphics/SVG/1.1/DTD/svg11.dtd"><svg t="1600362917771" class="icon" viewBox="0 0 1024 1024" version="1.1" xmlns="http://www.w3.org/2000/svg" p-id="4199" xmlns:xlink="http://www.w3.org/1999/xlink" width="200" height="200"><defs><style type="text/css"></style></defs><path d="M839.75777 299.310483l-166.795243-166.795243c-5.62806-5.62806-13.098031-8.697911-20.977316-8.697911-7.879285 0-15.349256 3.069851-20.977316 8.697911L177.181573 586.136904c-4.40012 3.888478-7.674628 9.311882-8.80024 15.553912l-40.317378 205.987009c-1.637254 8.902568 1.125612 18.009793 7.469971 24.45648 5.218747 5.321075 12.279404 8.18627 19.647047 8.18627 1.534926 0 3.172179-0.102328 4.707105-0.409313l208.033576-35.917258c6.139702-0.61397 12.177076-3.274508 16.884181-7.981613l454.849605-454.849605c5.62806-5.62806 8.697911-13.098031 8.697911-20.977316S845.38583 304.938543 839.75777 299.310483zM352.060757 750.783252l-162.395123 28.037973 31.41481-158.301989 319.469172-319.469172L671.120616 431.723394 352.060757 750.783252zM710.210053 392.633956 579.536724 261.960628l72.346158-72.346158 130.673329 130.673329L710.210053 392.633956z" p-id="4200" fill="#8a8a8a"></path><path d="M797.291496 919.318077 154.976317 919.318077c-15.246927 0-27.62866-12.381733-27.62866-27.62866s12.381733-27.62866 27.62866-27.62866l642.417508 0c15.246927 0 27.62866 12.381733 27.62866 27.62866S812.538423 919.318077 797.291496 919.318077z" p-id="4201" fill="#8a8a8a"></path></svg>