<?xml version="1.0" standalone="no"?><!DOCTYPE svg PUBLIC "-//W3C//DTD SVG 1.1//EN" "http://www.w3.org/Graphics/SVG/1.1/DTD/svg11.dtd"><svg t="1600362889873" class="icon" viewBox="0 0 1024 1024" version="1.1" xmlns="http://www.w3.org/2000/svg" p-id="3377" xmlns:xlink="http://www.w3.org/1999/xlink" width="200" height="200"><defs><style type="text/css"></style></defs><path d="M908.215449 405.322674c-6.037374-21.488958-25.582093-36.326571-47.889677-36.326571l-0.102328 0c-18.009793 0-34.075347-9.107225-42.875587-24.251824-8.80024-15.246927-8.595583-33.666034 0.511642-49.322274 11.256121-19.340062 8.18627-43.796542-7.469971-59.759768-50.550215-51.675827-114.403118-88.51404-184.805036-106.421505-4.093135-1.023284-8.18627-1.534926-12.279404-1.534926-17.498151 0-34.075347 9.209553-43.080244 24.865794-9.004897 15.656241-24.865794 22.307585-42.466274 22.307585s-33.359049-6.651344-42.466274-22.307585c-9.004897-15.656241-25.582093-24.865794-43.080244-24.865794-4.093135 0-8.18627 0.511642-12.279404 1.534926-70.29959 17.907465-134.254822 54.745678-184.805036 106.421505-15.656241 15.963226-18.726092 40.419706-7.469971 59.759768 9.107225 15.656241 9.311882 34.075347 0.511642 49.322274-8.80024 15.144599-24.763466 24.251824-42.875587 24.251824l-0.102328 0c-22.307585 0-41.954632 14.837614-47.889677 36.326571-9.925852 35.405616-13.916658 71.220546-13.916658 106.626162 0 35.303288 3.990806 71.220546 13.916658 106.626162 6.037374 21.488958 25.582093 36.326571 47.889677 36.326571l0.102328 0c18.009793 0 34.075347 9.107225 42.875587 24.251824 8.80024 15.246927 8.595583 33.666034-0.511642 49.322274-11.256121 19.340062-8.18627 43.796542 7.469971 59.759768 50.550215 51.675827 114.403118 88.51404 184.805036 106.421505 4.093135 1.023284 8.18627 1.534926 12.279404 1.534926 17.498151 0 34.075347-9.209553 43.080244-24.865794 9.004897-15.656241 24.865794-22.307585 42.466274-22.307585s33.359049 6.651344 42.466274 22.307585c9.004897 15.656241 25.582093 24.865794 43.080244 24.865794 4.093135 0 8.18627-0.511642 12.279404-1.534926 70.29959-17.907465 134.254822-54.745678 184.805036-106.421505 15.656241-15.963226 18.726092-40.419706 7.469971-59.759768-9.107225-15.656241-9.311882-34.075347-0.511642-49.322274 8.80024-15.144599 24.763466-24.251824 42.875587-24.251824l0.102328 0c22.307585 0 41.954632-14.837614 47.889677-36.326571 9.925852-35.405616 13.916658-71.220546 13.916658-106.626162C922.029779 476.645548 918.038973 440.72829 908.215449 405.322674zM860.223444 605.169981c0 0-0.102328 0-0.102328 0-34.280004 0-67.536724 17.293495-85.955831 49.117618-18.419107 31.824123-16.679524 69.480963 0.511642 99.156191-43.591886 44.615169-99.156191 77.155591-161.474168 93.016488-17.088838-29.675227-48.810633-48.401319-85.546517-48.401319-36.735885 0-68.45768 18.726092-85.546517 48.401319C379.894074 830.59938 324.227441 798.058959 280.737883 753.443789c17.191166-29.675227 18.930748-67.332068 0.511642-99.156191-18.316778-31.824123-51.675827-49.117618-85.955831-49.117618 0 0-0.102328 0-0.102328 0-8.288598-29.675227-12.074748-60.88538-12.074748-93.221145s3.78615-63.443589 12.074748-93.221145c0 0 0.102328 0 0.102328 0 34.280004 0 67.536724-17.293495 85.955831-49.117618 18.419107-31.824123 16.679524-69.480963-0.511642-99.156191 43.591886-44.615169 99.156191-77.155591 161.474168-93.016488 17.088838 29.675227 48.810633 48.401319 85.546517 48.401319 36.735885 0 68.45768-18.726092 85.546517-48.401319 62.317977 15.860897 117.882282 48.401319 161.474168 93.016488-17.191166 29.675227-18.930748 67.332068-0.511642 99.156191 18.316778 31.824123 51.675827 49.117618 85.955831 49.117618 0 0 0.102328 0 0.102328 0 8.288598 29.675227 12.074748 60.88538 12.074748 93.221145S868.61437 575.494754 860.223444 605.169981z" p-id="3378"></path><path d="M643.491956 395.806136c-15.04227-15.04227-32.64275-26.912361-52.187469-35.200959-20.261017-8.595583-41.852303-12.893375-63.955231-12.893375-22.205256 0-43.694214 4.40012-63.955231 12.893375-19.544719 8.288598-37.145198 20.158689-52.187469 35.200959-15.04227 15.04227-26.912361 32.64275-35.200959 52.187469-8.595583 20.261017-12.893375 41.852303-12.893375 63.955231 0 22.205256 4.40012 43.694214 12.893375 63.955231 8.288598 19.544719 20.158689 37.145198 35.200959 52.187469 15.04227 15.04227 32.64275 26.912361 52.187469 35.200959 20.261017 8.595583 41.852303 12.893375 63.955231 12.893375 22.205256 0 43.694214-4.40012 63.955231-12.893375 19.544719-8.288598 37.145198-20.158689 52.187469-35.200959 15.04227-15.04227 26.912361-32.64275 35.200959-52.187469 8.595583-20.261017 12.893375-41.852303 12.893375-63.955231 0-22.205256-4.40012-43.694214-12.893375-63.955231C670.404317 428.448886 658.534226 410.848406 643.491956 395.806136zM527.349256 627.170581c-63.648246 0-115.221745-51.573499-115.221745-115.221745s51.573499-115.221745 115.221745-115.221745c63.648246 0 115.221745 51.573499 115.221745 115.221745S590.895173 627.170581 527.349256 627.170581z" p-id="3379"></path></svg>