<?xml version="1.0" standalone="no"?><!DOCTYPE svg PUBLIC "-//W3C//DTD SVG 1.1//EN" "http://www.w3.org/Graphics/SVG/1.1/DTD/svg11.dtd"><svg t="1600306519260" class="icon" viewBox="0 0 1024 1024" version="1.1" xmlns="http://www.w3.org/2000/svg" p-id="1152" xmlns:xlink="http://www.w3.org/1999/xlink" width="200" height="200"><defs><style type="text/css"></style></defs><path d="M887.295408 374.795414c0-9.79988-3.699955-19.59976-11.199863-26.99967L539.499664 11.199863C532.39975 3.999951 522.699869 0 512.499994 0c-10.099876 0-19.899757 3.999951-26.99967 11.199863L147.904455 348.795732c-14.899818 14.899818-14.899818 39.099522 0 54.099338 14.899818 14.899818 39.19952 14.899818 54.099338 0L512.499994 92.298871l309.596212 309.496213c14.899818 14.899818 39.19952 14.899818 54.099338 0 7.399909-7.399909 11.099864-17.19979 11.099864-26.99967z" p-id="1153" fill="#1296db"></path><path d="M887.295408 679.791682c0-9.79988-3.699955-19.59976-11.199863-26.99967L539.499664 316.096132a38.149533 38.149533 0 0 0-26.99967-11.199863c-10.099876 0-19.899757 3.999951-26.99967 11.199863L147.904455 653.792c-14.899818 14.899818-14.899818 39.099522 0 54.099338s39.19952 14.899818 54.099338 0l310.5962-310.596199 309.596211 309.496212c14.899818 14.899818 39.19952 14.899818 54.099338 0 7.299911-7.499908 10.999865-17.19979 10.999866-26.999669z" p-id="1154" fill="#1296db"></path><path d="M887.295408 984.687951c0-9.79988-3.699955-19.59976-11.199863-26.99967L539.499664 621.0924a38.149533 38.149533 0 0 0-26.99967-11.199863c-10.099876 0-19.899757 3.999951-26.99967 11.199863L147.904455 958.688269c-14.899818 14.899818-14.899818 39.099522 0 54.099338s39.19952 14.899818 54.099338 0l310.5962-310.596199 309.596211 309.496213c14.899818 14.899818 39.19952 14.899818 54.099338 0 7.299911-7.399909 10.999865-17.19979 10.999866-26.99967z" p-id="1155" fill="#1296db"></path></svg>